<svg fill="none" height="92" viewBox="0 0 96 92" width="96" xmlns="http://www.w3.org/2000/svg"><path d="m50.0274 22.6621c12.9057 0 23.3476 10.4419 23.3476 23.3281s-10.4419 23.3477-23.3476 23.3477c-12.9058 0-23.3477-10.4419-23.3477-23.3281s10.4419-23.3477 23.3477-23.3477z" fill="#e74d89"/><path d="m50.0293 71c-13.8052 0-25.0293-11.2045-25.0293-24.9902 0-13.8053 11.2241-25.0098 25.0293-25.0098 13.8053 0 25.0294 11.2045 25.0294 24.9902s-11.2241 25.0098-25.0294 25.0098zm21.099-21.5878c-.7235-.2346-6.6093-1.975-13.3164-.919 2.7962 7.6652 3.9304 13.9225 4.1455 15.2131 4.8103-3.2264 8.2323-8.3496 9.1709-14.2941zm-12.7493 16.2691c-.3129-1.8772-1.5644-8.4083-4.5562-16.1909-.0391.0196-.0977.0391-.1368.0391-12.065 4.2042-16.3864 12.5538-16.7775 13.336 3.6175 2.8158 8.1736 4.4974 13.1208 4.4974 2.9527.0196 5.7881-.5866 8.3497-1.6816zm-24.2277-5.3774c.4889-.8213 6.3552-10.5202 17.3837-14.0986.2738-.0978.5671-.176.8408-.2542-.5279-1.2123-1.1146-2.4247-1.7403-3.6175-10.6766 3.1873-21.0403 3.0504-21.9789 3.0309 0 .2151-.0195.4302-.0195.6453.0195 5.4947 2.0923 10.5006 5.5142 14.2941zm-5.0449-18.6547c.9581.0196 9.7575.0587 19.7692-2.6007-3.5393-6.2964-7.3719-11.5761-7.9194-12.3387-6.0031 2.8158-10.4615 8.3301-11.8498 14.9394zm15.9171-16.3864c.5866.7822 4.4779 6.0618 7.9781 12.4951 7.6065-2.8549 10.8134-7.1568 11.2045-7.7043-3.774-3.3438-8.7407-5.3774-14.1768-5.3774-1.7207 0-3.4024.2151-5.0058.5866zm21.5487 7.2546c-.4498.6062-4.0282 5.2014-11.9281 8.4278.4889 1.0169.9777 2.0532 1.4275 3.0896.1564.3715.3128.7431.4693 1.095 7.1177-.8995 14.1767.5476 14.8807.6844-.0587-5.0254-1.8577-9.6597-4.8494-13.2968z" fill="#b2215a"/></svg>